<svg width="37" height="38" viewBox="0 0 37 38" fill="none" xmlns="http://www.w3.org/2000/svg">
<path d="M7.70836 3.16667C8.11724 3.16667 8.50937 3.33349 8.79849 3.63042C9.0876 3.92735 9.25003 4.33008 9.25003 4.75001V13.395L10.7917 14.4558V4.75001C10.7917 4.33008 10.9541 3.92735 11.2432 3.63042C11.5324 3.33349 11.9245 3.16667 12.3334 3.16667C12.7422 3.16667 13.1344 3.33349 13.4235 3.63042C13.7126 3.92735 13.875 4.33008 13.875 4.75001V14.4558L15.4167 13.395V4.75001C15.4167 4.33008 15.5791 3.92735 15.8682 3.63042C16.1574 3.33349 16.5495 3.16667 16.9584 3.16667C17.3672 3.16667 17.7594 3.33349 18.0485 3.63042C18.3376 3.92735 18.5 4.33008 18.5 4.75001V14.25C18.4987 14.5108 18.4347 14.7672 18.3137 14.9965C18.1926 15.2257 18.0184 15.4207 17.8063 15.5642L13.875 18.2717V33.25C13.875 33.6699 13.7126 34.0727 13.4235 34.3696C13.1344 34.6665 12.7422 34.8333 12.3334 34.8333C11.9245 34.8333 11.5324 34.6665 11.2432 34.3696C10.9541 34.0727 10.7917 33.6699 10.7917 33.25V18.2717L6.86045 15.5642C6.64837 15.4207 6.47408 15.2257 6.35305 14.9965C6.23202 14.7672 6.16801 14.5108 6.16669 14.25V4.75001C6.16669 4.33008 6.32912 3.92735 6.61824 3.63042C6.90736 3.33349 7.29949 3.16667 7.70836 3.16667V3.16667ZM23.125 3.16667C25.1694 3.16667 27.13 4.00075 28.5756 5.48541C30.0212 6.97007 30.8334 8.98371 30.8334 11.0833V20.5833C30.8334 21.0033 30.6709 21.406 30.3818 21.7029C30.0927 21.9999 29.7006 22.1667 29.2917 22.1667H24.6667V33.25C24.6667 33.6699 24.5043 34.0727 24.2151 34.3696C23.926 34.6665 23.5339 34.8333 23.125 34.8333C22.7162 34.8333 22.324 34.6665 22.0349 34.3696C21.7458 34.0727 21.5834 33.6699 21.5834 33.25V4.75001C21.5834 4.33008 21.7458 3.92735 22.0349 3.63042C22.324 3.33349 22.7162 3.16667 23.125 3.16667V3.16667ZM24.6667 19H27.75V11.0833C27.7505 10.1006 27.4542 9.14197 26.902 8.33945C26.3498 7.53693 25.5688 6.93007 24.6667 6.60251V19Z" fill="#191819"/>
</svg>
